<svg xmlns="http://www.w3.org/2000/svg" xmlns:xlink="http://www.w3.org/1999/xlink" width="422" zoomAndPan="magnify" viewBox="0 0 316.5 79.499998" height="106" preserveAspectRatio="xMidYMid meet" version="1.0"><defs><g/><clipPath id="210d2630b6"><path d="M 1.011719 21 L 50.203125 21 L 50.203125 72 L 1.011719 72 Z M 1.011719 21 " clip-rule="nonzero"/></clipPath></defs><g clip-path="url(#210d2630b6)"><path fill="#0bc993" d="M 28.441406 61.242188 C 25.574219 63.835938 22.441406 66.066406 19.054688 67.929688 C 18.144531 68.460938 17.207031 68.957031 16.238281 69.410156 C 14.488281 68.683594 12.84375 67.769531 11.304688 66.664062 C 9.765625 65.5625 8.375 64.296875 7.125 62.871094 C 5.878906 61.449219 4.808594 59.902344 3.917969 58.230469 C 3.027344 56.558594 2.335938 54.808594 1.847656 52.980469 C 2.835938 53.589844 3.867188 54.175781 4.898438 54.714844 C 8.527344 56.679688 12.328125 58.210938 16.300781 59.3125 C 20.273438 60.414062 24.320312 61.058594 28.441406 61.242188 Z M 14.359375 56.3125 C 12.472656 52.679688 11.007812 48.882812 9.972656 44.921875 C 8.933594 40.960938 8.347656 36.933594 8.210938 32.839844 C 8.210938 31.667969 8.210938 30.492188 8.210938 29.34375 C 7.074219 30.480469 6.0625 31.71875 5.171875 33.054688 C 4.277344 34.390625 3.523438 35.800781 2.910156 37.285156 C 2.292969 38.765625 1.828125 40.296875 1.511719 41.871094 C 1.195312 43.445312 1.03125 45.035156 1.027344 46.640625 C 1.027344 47.710938 1.097656 48.773438 1.238281 49.835938 C 2.113281 50.429688 3.007812 50.992188 3.914062 51.523438 C 7.21875 53.523438 10.710938 55.117188 14.382812 56.3125 Z M 28.886719 24.578125 C 29.898438 23.96875 30.929688 23.359375 31.984375 22.820312 C 30.167969 22.335938 28.316406 22.066406 26.433594 22.007812 C 24.554688 21.953125 22.691406 22.109375 20.84375 22.480469 C 19 22.847656 17.21875 23.421875 15.507812 24.203125 C 13.792969 24.980469 12.191406 25.945312 10.699219 27.089844 C 10.699219 28.148438 10.558594 29.203125 10.53125 30.257812 C 10.480469 34.117188 10.847656 37.9375 11.636719 41.714844 C 13.835938 38.25 16.390625 35.070312 19.300781 32.179688 C 22.210938 29.289062 25.40625 26.753906 28.886719 24.578125 Z M 46.421875 38.425781 C 47.453125 38.96875 48.484375 39.554688 49.472656 40.164062 C 48.984375 38.335938 48.292969 36.585938 47.402344 34.914062 C 46.511719 33.242188 45.441406 31.695312 44.195312 30.269531 C 42.949219 28.847656 41.554688 27.582031 40.015625 26.476562 C 38.476562 25.375 36.832031 24.460938 35.082031 23.734375 C 34.113281 24.1875 33.175781 24.679688 32.265625 25.214844 C 28.878906 27.082031 25.75 29.3125 22.878906 31.902344 C 27 32.085938 31.046875 32.730469 35.019531 33.832031 C 38.992188 34.933594 42.792969 36.464844 46.421875 38.425781 Z M 43.109375 64.035156 C 44.253906 62.890625 45.273438 61.648438 46.167969 60.304688 C 47.066406 58.964844 47.824219 57.546875 48.441406 56.054688 C 49.058594 54.5625 49.527344 53.023438 49.84375 51.441406 C 50.15625 49.855469 50.316406 48.257812 50.316406 46.640625 C 50.316406 45.574219 50.246094 44.507812 50.105469 43.449219 C 49.230469 42.871094 48.335938 42.308594 47.429688 41.761719 C 44.121094 39.796875 40.628906 38.230469 36.960938 37.066406 C 38.847656 40.699219 40.3125 44.496094 41.347656 48.457031 C 42.386719 52.417969 42.972656 56.445312 43.109375 60.535156 C 43.273438 61.710938 43.273438 62.882812 43.109375 64.035156 Z M 22.457031 68.726562 C 21.445312 69.339844 20.414062 69.949219 19.359375 70.488281 C 21.175781 70.972656 23.027344 71.242188 24.910156 71.296875 C 26.789062 71.355469 28.652344 71.199219 30.5 70.828125 C 32.34375 70.457031 34.125 69.882812 35.835938 69.105469 C 37.550781 68.328125 39.152344 67.363281 40.644531 66.21875 C 40.644531 65.160156 40.789062 64.105469 40.8125 63.046875 C 40.863281 59.191406 40.496094 55.371094 39.707031 51.59375 C 37.507812 55.054688 34.953125 58.226562 32.039062 61.117188 C 29.128906 64.003906 25.933594 66.53125 22.457031 68.703125 Z M 22.457031 68.726562 " fill-opacity="1" fill-rule="nonzero"/></g><g fill="#0bc993" fill-opacity="1"><g transform="translate(66.084152, 45.210266)"><g><path d="M 7.125 -21.484375 L 7.125 0 L 1.890625 0 L 1.890625 -21.484375 Z M 7.125 -21.484375 "/></g></g></g><g fill="#0bc993" fill-opacity="1"><g transform="translate(84.229388, 45.210266)"><g><path d="M 21.125 0 L 15.890625 0 L 7.125 -13.25 L 7.125 0 L 1.890625 0 L 1.890625 -21.484375 L 7.125 -21.484375 L 15.890625 -8.171875 L 15.890625 -21.484375 L 21.125 -21.484375 Z M 21.125 0 "/></g></g></g><g fill="#0bc993" fill-opacity="1"><g transform="translate(116.355498, 45.210266)"><g><path d="M 22.0625 -21.484375 L 14.453125 0 L 7.890625 0 L 0.28125 -21.484375 L 5.84375 -21.484375 L 11.171875 -5.265625 L 16.53125 -21.484375 Z M 22.0625 -21.484375 "/></g></g></g><g fill="#0bc993" fill-opacity="1"><g transform="translate(147.808568, 45.210266)"><g><path d="M 12.0625 0.21875 C 10.039062 0.21875 8.1875 -0.25 6.5 -1.1875 C 4.820312 -2.132812 3.488281 -3.445312 2.5 -5.125 C 1.507812 -6.8125 1.015625 -8.707031 1.015625 -10.8125 C 1.015625 -12.90625 1.507812 -14.789062 2.5 -16.46875 C 3.488281 -18.144531 4.820312 -19.453125 6.5 -20.390625 C 8.1875 -21.328125 10.039062 -21.796875 12.0625 -21.796875 C 14.082031 -21.796875 15.929688 -21.328125 17.609375 -20.390625 C 19.296875 -19.453125 20.625 -18.144531 21.59375 -16.46875 C 22.5625 -14.789062 23.046875 -12.90625 23.046875 -10.8125 C 23.046875 -8.707031 22.554688 -6.8125 21.578125 -5.125 C 20.597656 -3.445312 19.269531 -2.132812 17.59375 -1.1875 C 15.925781 -0.25 14.082031 0.21875 12.0625 0.21875 Z M 12.0625 -4.5625 C 13.769531 -4.5625 15.140625 -5.128906 16.171875 -6.265625 C 17.203125 -7.410156 17.71875 -8.925781 17.71875 -10.8125 C 17.71875 -12.707031 17.203125 -14.21875 16.171875 -15.34375 C 15.140625 -16.476562 13.769531 -17.046875 12.0625 -17.046875 C 10.320312 -17.046875 8.9375 -16.484375 7.90625 -15.359375 C 6.875 -14.242188 6.359375 -12.726562 6.359375 -10.8125 C 6.359375 -8.90625 6.875 -7.382812 7.90625 -6.25 C 8.9375 -5.125 10.320312 -4.5625 12.0625 -4.5625 Z M 12.0625 -4.5625 "/></g></g></g><g fill="#0bc993" fill-opacity="1"><g transform="translate(180.978724, 45.210266)"><g><path d="M 9.125 0.21875 C 7.71875 0.21875 6.457031 -0.03125 5.34375 -0.53125 C 4.226562 -1.03125 3.351562 -1.722656 2.71875 -2.609375 C 2.09375 -3.503906 1.769531 -4.53125 1.75 -5.6875 L 4.71875 -5.6875 C 4.8125 -4.6875 5.222656 -3.84375 5.953125 -3.15625 C 6.679688 -2.476562 7.738281 -2.140625 9.125 -2.140625 C 10.445312 -2.140625 11.488281 -2.46875 12.25 -3.125 C 13.019531 -3.789062 13.40625 -4.644531 13.40625 -5.6875 C 13.40625 -6.507812 13.179688 -7.175781 12.734375 -7.6875 C 12.285156 -8.195312 11.722656 -8.582031 11.046875 -8.84375 C 10.378906 -9.113281 9.472656 -9.398438 8.328125 -9.703125 C 6.921875 -10.066406 5.789062 -10.429688 4.9375 -10.796875 C 4.09375 -11.171875 3.367188 -11.75 2.765625 -12.53125 C 2.160156 -13.320312 1.859375 -14.378906 1.859375 -15.703125 C 1.859375 -16.867188 2.15625 -17.898438 2.75 -18.796875 C 3.34375 -19.691406 4.175781 -20.382812 5.25 -20.875 C 6.320312 -21.363281 7.550781 -21.609375 8.9375 -21.609375 C 10.9375 -21.609375 12.570312 -21.109375 13.84375 -20.109375 C 15.125 -19.109375 15.847656 -17.78125 16.015625 -16.125 L 12.953125 -16.125 C 12.847656 -16.945312 12.414062 -17.664062 11.65625 -18.28125 C 10.90625 -18.90625 9.90625 -19.21875 8.65625 -19.21875 C 7.5 -19.21875 6.550781 -18.914062 5.8125 -18.3125 C 5.082031 -17.71875 4.71875 -16.878906 4.71875 -15.796875 C 4.71875 -15.015625 4.9375 -14.378906 5.375 -13.890625 C 5.8125 -13.398438 6.347656 -13.023438 6.984375 -12.765625 C 7.628906 -12.515625 8.535156 -12.226562 9.703125 -11.90625 C 11.109375 -11.519531 12.238281 -11.132812 13.09375 -10.75 C 13.957031 -10.375 14.691406 -9.796875 15.296875 -9.015625 C 15.910156 -8.234375 16.21875 -7.164062 16.21875 -5.8125 C 16.21875 -4.769531 15.941406 -3.789062 15.390625 -2.875 C 14.835938 -1.957031 14.019531 -1.210938 12.9375 -0.640625 C 11.863281 -0.0664062 10.59375 0.21875 9.125 0.21875 Z M 9.125 0.21875 "/></g></g></g><g fill="#0bc993" fill-opacity="1"><g transform="translate(208.057041, 45.210266)"><g><path d="M 1.3125 -10.6875 C 1.3125 -12.769531 1.78125 -14.640625 2.71875 -16.296875 C 3.65625 -17.960938 4.9375 -19.265625 6.5625 -20.203125 C 8.1875 -21.140625 9.988281 -21.609375 11.96875 -21.609375 C 14.289062 -21.609375 16.316406 -21.046875 18.046875 -19.921875 C 19.785156 -18.804688 21.054688 -17.21875 21.859375 -15.15625 L 18.515625 -15.15625 C 17.921875 -16.4375 17.066406 -17.421875 15.953125 -18.109375 C 14.847656 -18.804688 13.519531 -19.15625 11.96875 -19.15625 C 10.476562 -19.15625 9.140625 -18.804688 7.953125 -18.109375 C 6.773438 -17.421875 5.847656 -16.4375 5.171875 -15.15625 C 4.492188 -13.882812 4.15625 -12.394531 4.15625 -10.6875 C 4.15625 -8.988281 4.492188 -7.5 5.171875 -6.21875 C 5.847656 -4.945312 6.773438 -3.960938 7.953125 -3.265625 C 9.140625 -2.578125 10.476562 -2.234375 11.96875 -2.234375 C 13.519531 -2.234375 14.847656 -2.570312 15.953125 -3.25 C 17.066406 -3.9375 17.921875 -4.925781 18.515625 -6.21875 L 21.859375 -6.21875 C 21.054688 -4.175781 19.785156 -2.597656 18.046875 -1.484375 C 16.316406 -0.367188 14.289062 0.1875 11.96875 0.1875 C 9.988281 0.1875 8.1875 -0.273438 6.5625 -1.203125 C 4.9375 -2.140625 3.65625 -3.429688 2.71875 -5.078125 C 1.78125 -6.734375 1.3125 -8.601562 1.3125 -10.6875 Z M 1.3125 -10.6875 "/></g></g></g><g fill="#0bc993" fill-opacity="1"><g transform="translate(240.795006, 45.210266)"><g><path d="M 14.96875 -4.75 L 5.65625 -4.75 L 3.953125 0 L 1.015625 0 L 8.71875 -21.21875 L 11.9375 -21.21875 L 19.625 0 L 16.6875 0 Z M 14.171875 -7.015625 L 10.3125 -17.78125 L 6.453125 -7.015625 Z M 14.171875 -7.015625 "/></g></g></g><g fill="#0bc993" fill-opacity="1"><g transform="translate(270.534891, 45.210266)"><g><path d="M 19.125 0 L 16.34375 0 L 5.140625 -16.984375 L 5.140625 0 L 2.359375 0 L 2.359375 -21.359375 L 5.140625 -21.359375 L 16.34375 -4.40625 L 16.34375 -21.359375 L 19.125 -21.359375 Z M 19.125 0 "/></g></g></g><g fill="#0bc993" fill-opacity="1"><g transform="translate(63.669907, 69.371298)"><g><path d="M 0.484375 -3.9375 C 0.484375 -4.695312 0.65625 -5.382812 1 -6 C 1.34375 -6.613281 1.8125 -7.09375 2.40625 -7.4375 C 3.007812 -7.78125 3.675781 -7.953125 4.40625 -7.953125 C 5.257812 -7.953125 6.003906 -7.742188 6.640625 -7.328125 C 7.285156 -6.921875 7.753906 -6.335938 8.046875 -5.578125 L 6.8125 -5.578125 C 6.59375 -6.046875 6.28125 -6.40625 5.875 -6.65625 C 5.46875 -6.914062 4.976562 -7.046875 4.40625 -7.046875 C 3.851562 -7.046875 3.359375 -6.914062 2.921875 -6.65625 C 2.492188 -6.40625 2.15625 -6.046875 1.90625 -5.578125 C 1.65625 -5.109375 1.53125 -4.5625 1.53125 -3.9375 C 1.53125 -3.3125 1.65625 -2.765625 1.90625 -2.296875 C 2.15625 -1.828125 2.492188 -1.460938 2.921875 -1.203125 C 3.359375 -0.953125 3.851562 -0.828125 4.40625 -0.828125 C 4.976562 -0.828125 5.46875 -0.953125 5.875 -1.203125 C 6.28125 -1.453125 6.59375 -1.8125 6.8125 -2.28125 L 8.046875 -2.28125 C 7.753906 -1.53125 7.285156 -0.953125 6.640625 -0.546875 C 6.003906 -0.140625 5.257812 0.0625 4.40625 0.0625 C 3.675781 0.0625 3.007812 -0.101562 2.40625 -0.4375 C 1.8125 -0.78125 1.34375 -1.253906 1 -1.859375 C 0.65625 -2.472656 0.484375 -3.164062 0.484375 -3.9375 Z M 0.484375 -3.9375 "/></g></g></g><g fill="#0bc993" fill-opacity="1"><g transform="translate(75.339535, 69.371298)"><g><path d="M 5.515625 -1.75 L 2.078125 -1.75 L 1.453125 0 L 0.375 0 L 3.203125 -7.8125 L 4.390625 -7.8125 L 7.21875 0 L 6.140625 0 Z M 5.21875 -2.578125 L 3.796875 -6.546875 L 2.375 -2.578125 Z M 5.21875 -2.578125 "/></g></g></g><g fill="#0bc993" fill-opacity="1"><g transform="translate(85.905392, 69.371298)"><g><path d="M 6.109375 -5.546875 C 6.109375 -4.898438 5.882812 -4.359375 5.4375 -3.921875 C 5 -3.492188 4.320312 -3.28125 3.40625 -3.28125 L 1.890625 -3.28125 L 1.890625 0 L 0.875 0 L 0.875 -7.859375 L 3.40625 -7.859375 C 4.289062 -7.859375 4.960938 -7.640625 5.421875 -7.203125 C 5.878906 -6.773438 6.109375 -6.222656 6.109375 -5.546875 Z M 3.40625 -4.125 C 3.976562 -4.125 4.394531 -4.242188 4.65625 -4.484375 C 4.925781 -4.734375 5.0625 -5.085938 5.0625 -5.546875 C 5.0625 -6.515625 4.507812 -7 3.40625 -7 L 1.890625 -7 L 1.890625 -4.125 Z M 3.40625 -4.125 "/></g></g></g><g fill="#0bc993" fill-opacity="1"><g transform="translate(95.401266, 69.371298)"><g><path d="M 5.703125 -7.859375 L 5.703125 -7.015625 L 3.5625 -7.015625 L 3.5625 0 L 2.53125 0 L 2.53125 -7.015625 L 0.390625 -7.015625 L 0.390625 -7.859375 Z M 5.703125 -7.859375 "/></g></g></g><g fill="#0bc993" fill-opacity="1"><g transform="translate(104.469154, 69.371298)"><g><path d="M 1.875 -7.859375 L 1.875 -2.890625 C 1.875 -2.191406 2.039062 -1.671875 2.375 -1.328125 C 2.71875 -0.992188 3.195312 -0.828125 3.8125 -0.828125 C 4.40625 -0.828125 4.875 -0.992188 5.21875 -1.328125 C 5.5625 -1.671875 5.734375 -2.191406 5.734375 -2.890625 L 5.734375 -7.859375 L 6.765625 -7.859375 L 6.765625 -2.890625 C 6.765625 -2.242188 6.628906 -1.695312 6.359375 -1.25 C 6.097656 -0.800781 5.742188 -0.46875 5.296875 -0.25 C 4.847656 -0.03125 4.347656 0.078125 3.796875 0.078125 C 3.242188 0.078125 2.742188 -0.03125 2.296875 -0.25 C 1.847656 -0.46875 1.492188 -0.800781 1.234375 -1.25 C 0.972656 -1.695312 0.84375 -2.242188 0.84375 -2.890625 L 0.84375 -7.859375 Z M 1.875 -7.859375 "/></g></g></g><g fill="#0bc993" fill-opacity="1"><g transform="translate(115.046267, 69.371298)"><g><path d="M 5 0 L 3.125 -3.203125 L 1.890625 -3.203125 L 1.890625 0 L 0.875 0 L 0.875 -7.859375 L 3.40625 -7.859375 C 4 -7.859375 4.5 -7.753906 4.90625 -7.546875 C 5.3125 -7.347656 5.613281 -7.070312 5.8125 -6.71875 C 6.019531 -6.375 6.125 -5.984375 6.125 -5.546875 C 6.125 -5.003906 5.96875 -4.523438 5.65625 -4.109375 C 5.34375 -3.703125 4.878906 -3.429688 4.265625 -3.296875 L 6.234375 0 Z M 1.890625 -4.03125 L 3.40625 -4.03125 C 3.957031 -4.03125 4.367188 -4.164062 4.640625 -4.4375 C 4.921875 -4.71875 5.0625 -5.085938 5.0625 -5.546875 C 5.0625 -6.003906 4.925781 -6.359375 4.65625 -6.609375 C 4.382812 -6.867188 3.96875 -7 3.40625 -7 L 1.890625 -7 Z M 1.890625 -4.03125 "/></g></g></g><g fill="#0bc993" fill-opacity="1"><g transform="translate(124.868768, 69.371298)"><g><path d="M 1.890625 -7.015625 L 1.890625 -4.390625 L 4.75 -4.390625 L 4.75 -3.546875 L 1.890625 -3.546875 L 1.890625 -0.84375 L 5.09375 -0.84375 L 5.09375 0 L 0.875 0 L 0.875 -7.859375 L 5.09375 -7.859375 L 5.09375 -7.015625 Z M 1.890625 -7.015625 "/></g></g></g><g fill="#0bc993" fill-opacity="1"><g transform="translate(133.621282, 69.371298)"><g/></g></g><g fill="#0bc993" fill-opacity="1"><g transform="translate(139.603116, 69.371298)"><g><path d="M 2.15625 1.1875 L 1.125 1.1875 L 1.125 -8.953125 L 2.15625 -8.953125 Z M 2.15625 1.1875 "/></g></g></g><g fill="#0bc993" fill-opacity="1"><g transform="translate(145.855256, 69.371298)"><g/></g></g><g fill="#0bc993" fill-opacity="1"><g transform="translate(151.837089, 69.371298)"><g><path d="M 0.484375 -3.9375 C 0.484375 -4.695312 0.65625 -5.382812 1 -6 C 1.34375 -6.613281 1.8125 -7.09375 2.40625 -7.4375 C 3.007812 -7.78125 3.675781 -7.953125 4.40625 -7.953125 C 5.257812 -7.953125 6.003906 -7.742188 6.640625 -7.328125 C 7.285156 -6.921875 7.753906 -6.335938 8.046875 -5.578125 L 6.8125 -5.578125 C 6.59375 -6.046875 6.28125 -6.40625 5.875 -6.65625 C 5.46875 -6.914062 4.976562 -7.046875 4.40625 -7.046875 C 3.851562 -7.046875 3.359375 -6.914062 2.921875 -6.65625 C 2.492188 -6.40625 2.15625 -6.046875 1.90625 -5.578125 C 1.65625 -5.109375 1.53125 -4.5625 1.53125 -3.9375 C 1.53125 -3.3125 1.65625 -2.765625 1.90625 -2.296875 C 2.15625 -1.828125 2.492188 -1.460938 2.921875 -1.203125 C 3.359375 -0.953125 3.851562 -0.828125 4.40625 -0.828125 C 4.976562 -0.828125 5.46875 -0.953125 5.875 -1.203125 C 6.28125 -1.453125 6.59375 -1.8125 6.8125 -2.28125 L 8.046875 -2.28125 C 7.753906 -1.53125 7.285156 -0.953125 6.640625 -0.546875 C 6.003906 -0.140625 5.257812 0.0625 4.40625 0.0625 C 3.675781 0.0625 3.007812 -0.101562 2.40625 -0.4375 C 1.8125 -0.78125 1.34375 -1.253906 1 -1.859375 C 0.65625 -2.472656 0.484375 -3.164062 0.484375 -3.9375 Z M 0.484375 -3.9375 "/></g></g></g><g fill="#0bc993" fill-opacity="1"><g transform="translate(163.506715, 69.371298)"><g><path d="M 6.921875 -7.859375 L 6.921875 0 L 5.890625 0 L 5.890625 -3.5625 L 1.890625 -3.5625 L 1.890625 0 L 0.875 0 L 0.875 -7.859375 L 1.890625 -7.859375 L 1.890625 -4.40625 L 5.890625 -4.40625 L 5.890625 -7.859375 Z M 6.921875 -7.859375 "/></g></g></g><g fill="#0bc993" fill-opacity="1"><g transform="translate(174.275305, 69.371298)"><g><path d="M 1.890625 -7.015625 L 1.890625 -4.390625 L 4.75 -4.390625 L 4.75 -3.546875 L 1.890625 -3.546875 L 1.890625 -0.84375 L 5.09375 -0.84375 L 5.09375 0 L 0.875 0 L 0.875 -7.859375 L 5.09375 -7.859375 L 5.09375 -7.015625 Z M 1.890625 -7.015625 "/></g></g></g><g fill="#0bc993" fill-opacity="1"><g transform="translate(183.027826, 69.371298)"><g><path d="M 0.484375 -3.9375 C 0.484375 -4.695312 0.65625 -5.382812 1 -6 C 1.34375 -6.613281 1.8125 -7.09375 2.40625 -7.4375 C 3.007812 -7.78125 3.675781 -7.953125 4.40625 -7.953125 C 5.257812 -7.953125 6.003906 -7.742188 6.640625 -7.328125 C 7.285156 -6.921875 7.753906 -6.335938 8.046875 -5.578125 L 6.8125 -5.578125 C 6.59375 -6.046875 6.28125 -6.40625 5.875 -6.65625 C 5.46875 -6.914062 4.976562 -7.046875 4.40625 -7.046875 C 3.851562 -7.046875 3.359375 -6.914062 2.921875 -6.65625 C 2.492188 -6.40625 2.15625 -6.046875 1.90625 -5.578125 C 1.65625 -5.109375 1.53125 -4.5625 1.53125 -3.9375 C 1.53125 -3.3125 1.65625 -2.765625 1.90625 -2.296875 C 2.15625 -1.828125 2.492188 -1.460938 2.921875 -1.203125 C 3.359375 -0.953125 3.851562 -0.828125 4.40625 -0.828125 C 4.976562 -0.828125 5.46875 -0.953125 5.875 -1.203125 C 6.28125 -1.453125 6.59375 -1.8125 6.8125 -2.28125 L 8.046875 -2.28125 C 7.753906 -1.53125 7.285156 -0.953125 6.640625 -0.546875 C 6.003906 -0.140625 5.257812 0.0625 4.40625 0.0625 C 3.675781 0.0625 3.007812 -0.101562 2.40625 -0.4375 C 1.8125 -0.78125 1.34375 -1.253906 1 -1.859375 C 0.65625 -2.472656 0.484375 -3.164062 0.484375 -3.9375 Z M 0.484375 -3.9375 "/></g></g></g><g fill="#0bc993" fill-opacity="1"><g transform="translate(194.697459, 69.371298)"><g><path d="M 5.125 0 L 1.890625 -3.578125 L 1.890625 0 L 0.875 0 L 0.875 -7.859375 L 1.890625 -7.859375 L 1.890625 -4.21875 L 5.140625 -7.859375 L 6.4375 -7.859375 L 2.875 -3.921875 L 6.46875 0 Z M 5.125 0 "/></g></g></g><g fill="#0bc993" fill-opacity="1"><g transform="translate(204.418602, 69.371298)"><g/></g></g><g fill="#0bc993" fill-opacity="1"><g transform="translate(210.400442, 69.371298)"><g><path d="M 2.15625 1.1875 L 1.125 1.1875 L 1.125 -8.953125 L 2.15625 -8.953125 Z M 2.15625 1.1875 "/></g></g></g><g fill="#0bc993" fill-opacity="1"><g transform="translate(216.652589, 69.371298)"><g/></g></g><g fill="#0bc993" fill-opacity="1"><g transform="translate(222.634428, 69.371298)"><g><path d="M 0.484375 -3.9375 C 0.484375 -4.695312 0.65625 -5.382812 1 -6 C 1.34375 -6.613281 1.8125 -7.09375 2.40625 -7.4375 C 3.007812 -7.78125 3.675781 -7.953125 4.40625 -7.953125 C 5.257812 -7.953125 6.003906 -7.742188 6.640625 -7.328125 C 7.285156 -6.921875 7.753906 -6.335938 8.046875 -5.578125 L 6.8125 -5.578125 C 6.59375 -6.046875 6.28125 -6.40625 5.875 -6.65625 C 5.46875 -6.914062 4.976562 -7.046875 4.40625 -7.046875 C 3.851562 -7.046875 3.359375 -6.914062 2.921875 -6.65625 C 2.492188 -6.40625 2.15625 -6.046875 1.90625 -5.578125 C 1.65625 -5.109375 1.53125 -4.5625 1.53125 -3.9375 C 1.53125 -3.3125 1.65625 -2.765625 1.90625 -2.296875 C 2.15625 -1.828125 2.492188 -1.460938 2.921875 -1.203125 C 3.359375 -0.953125 3.851562 -0.828125 4.40625 -0.828125 C 4.976562 -0.828125 5.46875 -0.953125 5.875 -1.203125 C 6.28125 -1.453125 6.59375 -1.8125 6.8125 -2.28125 L 8.046875 -2.28125 C 7.753906 -1.53125 7.285156 -0.953125 6.640625 -0.546875 C 6.003906 -0.140625 5.257812 0.0625 4.40625 0.0625 C 3.675781 0.0625 3.007812 -0.101562 2.40625 -0.4375 C 1.8125 -0.78125 1.34375 -1.253906 1 -1.859375 C 0.65625 -2.472656 0.484375 -3.164062 0.484375 -3.9375 Z M 0.484375 -3.9375 "/></g></g></g><g fill="#0bc993" fill-opacity="1"><g transform="translate(234.304061, 69.371298)"><g><path d="M 4.421875 0.078125 C 3.691406 0.078125 3.023438 -0.09375 2.421875 -0.4375 C 1.828125 -0.78125 1.351562 -1.253906 1 -1.859375 C 0.65625 -2.472656 0.484375 -3.164062 0.484375 -3.9375 C 0.484375 -4.695312 0.65625 -5.382812 1 -6 C 1.351562 -6.613281 1.828125 -7.085938 2.421875 -7.421875 C 3.023438 -7.765625 3.691406 -7.9375 4.421875 -7.9375 C 5.160156 -7.9375 5.828125 -7.765625 6.421875 -7.421875 C 7.023438 -7.085938 7.5 -6.613281 7.84375 -6 C 8.195312 -5.394531 8.375 -4.707031 8.375 -3.9375 C 8.375 -3.15625 8.195312 -2.460938 7.84375 -1.859375 C 7.5 -1.253906 7.023438 -0.78125 6.421875 -0.4375 C 5.828125 -0.09375 5.160156 0.078125 4.421875 0.078125 Z M 4.421875 -0.8125 C 4.972656 -0.8125 5.46875 -0.9375 5.90625 -1.1875 C 6.34375 -1.445312 6.6875 -1.8125 6.9375 -2.28125 C 7.195312 -2.757812 7.328125 -3.3125 7.328125 -3.9375 C 7.328125 -4.5625 7.195312 -5.109375 6.9375 -5.578125 C 6.6875 -6.046875 6.34375 -6.40625 5.90625 -6.65625 C 5.476562 -6.914062 4.984375 -7.046875 4.421875 -7.046875 C 3.867188 -7.046875 3.375 -6.914062 2.9375 -6.65625 C 2.5 -6.40625 2.15625 -6.046875 1.90625 -5.578125 C 1.65625 -5.109375 1.53125 -4.5625 1.53125 -3.9375 C 1.53125 -3.3125 1.65625 -2.757812 1.90625 -2.28125 C 2.15625 -1.8125 2.5 -1.445312 2.9375 -1.1875 C 3.382812 -0.9375 3.878906 -0.8125 4.421875 -0.8125 Z M 4.421875 -0.8125 "/></g></g></g><g fill="#0bc993" fill-opacity="1"><g transform="translate(246.131367, 69.371298)"><g><path d="M 8.828125 -7.796875 L 8.828125 0 L 7.8125 0 L 7.8125 -5.8125 L 5.21875 0 L 4.5 0 L 1.890625 -5.828125 L 1.890625 0 L 0.875 0 L 0.875 -7.796875 L 1.96875 -7.796875 L 4.859375 -1.359375 L 7.734375 -7.796875 Z M 8.828125 -7.796875 "/></g></g></g><g fill="#0bc993" fill-opacity="1"><g transform="translate(258.803406, 69.371298)"><g><path d="M 6.109375 -5.546875 C 6.109375 -4.898438 5.882812 -4.359375 5.4375 -3.921875 C 5 -3.492188 4.320312 -3.28125 3.40625 -3.28125 L 1.890625 -3.28125 L 1.890625 0 L 0.875 0 L 0.875 -7.859375 L 3.40625 -7.859375 C 4.289062 -7.859375 4.960938 -7.640625 5.421875 -7.203125 C 5.878906 -6.773438 6.109375 -6.222656 6.109375 -5.546875 Z M 3.40625 -4.125 C 3.976562 -4.125 4.394531 -4.242188 4.65625 -4.484375 C 4.925781 -4.734375 5.0625 -5.085938 5.0625 -5.546875 C 5.0625 -6.515625 4.507812 -7 3.40625 -7 L 1.890625 -7 L 1.890625 -4.125 Z M 3.40625 -4.125 "/></g></g></g><g fill="#0bc993" fill-opacity="1"><g transform="translate(268.299282, 69.371298)"><g><path d="M 5.515625 -1.75 L 2.078125 -1.75 L 1.453125 0 L 0.375 0 L 3.203125 -7.8125 L 4.390625 -7.8125 L 7.21875 0 L 6.140625 0 Z M 5.21875 -2.578125 L 3.796875 -6.546875 L 2.375 -2.578125 Z M 5.21875 -2.578125 "/></g></g></g><g fill="#0bc993" fill-opacity="1"><g transform="translate(278.865145, 69.371298)"><g><path d="M 5 0 L 3.125 -3.203125 L 1.890625 -3.203125 L 1.890625 0 L 0.875 0 L 0.875 -7.859375 L 3.40625 -7.859375 C 4 -7.859375 4.5 -7.753906 4.90625 -7.546875 C 5.3125 -7.347656 5.613281 -7.070312 5.8125 -6.71875 C 6.019531 -6.375 6.125 -5.984375 6.125 -5.546875 C 6.125 -5.003906 5.96875 -4.523438 5.65625 -4.109375 C 5.34375 -3.703125 4.878906 -3.429688 4.265625 -3.296875 L 6.234375 0 Z M 1.890625 -4.03125 L 3.40625 -4.03125 C 3.957031 -4.03125 4.367188 -4.164062 4.640625 -4.4375 C 4.921875 -4.71875 5.0625 -5.085938 5.0625 -5.546875 C 5.0625 -6.003906 4.925781 -6.359375 4.65625 -6.609375 C 4.382812 -6.867188 3.96875 -7 3.40625 -7 L 1.890625 -7 Z M 1.890625 -4.03125 "/></g></g></g><g fill="#0bc993" fill-opacity="1"><g transform="translate(288.687652, 69.371298)"><g><path d="M 1.890625 -7.015625 L 1.890625 -4.390625 L 4.75 -4.390625 L 4.75 -3.546875 L 1.890625 -3.546875 L 1.890625 -0.84375 L 5.09375 -0.84375 L 5.09375 0 L 0.875 0 L 0.875 -7.859375 L 5.09375 -7.859375 L 5.09375 -7.015625 Z M 1.890625 -7.015625 "/></g></g></g></svg>